<?xml version="1.0" standalone="no"?>
<!DOCTYPE svg PUBLIC "-//W3C//DTD SVG 20010904//EN"
 "http://www.w3.org/TR/2001/REC-SVG-20010904/DTD/svg10.dtd">
<svg version="1.0" xmlns="http://www.w3.org/2000/svg"
 width="1890.000000pt" height="1417.000000pt" viewBox="0 0 1890.000000 1417.000000"
 preserveAspectRatio="xMidYMid meet">

<g transform="translate(0.000000,1417.000000) scale(0.100000,-0.100000)"
fill="#000000" stroke="none">
<path d="M5070 9387 c-22 -11 -1477 -1705 -1506 -1753 -10 -17 -16 -15 -82 25
-143 86 -320 151 -526 191 -373 73 -828 46 -1181 -71 -477 -158 -807 -521
-755 -829 22 -131 92 -244 223 -358 205 -181 561 -350 930 -443 48 -12 87 -24
87 -28 0 -3 -48 -58 -106 -121 -268 -292 -427 -475 -441 -508 -13 -32 -13 -37
5 -61 24 -32 71 -39 99 -14 22 19 281 301 487 531 71 79 129 135 144 139 14 3
73 0 131 -6 253 -30 626 -25 1069 15 89 7 178 14 196 14 l34 0 -15 -57 c-8
-32 -77 -281 -153 -553 -75 -272 -141 -512 -144 -533 -12 -63 8 -103 67 -137
80 -46 110 -41 174 26 64 67 135 183 213 347 110 231 176 470 205 742 25 237
14 211 97 225 39 7 100 21 135 30 61 18 63 18 63 0 0 -116 168 -142 360 -54
128 59 200 142 200 232 l0 41 68 20 c37 11 91 26 120 34 l52 15 6 -27 c3 -14
8 -32 10 -40 3 -8 9 -60 14 -115 12 -118 41 -189 98 -236 45 -37 111 -60 172
-60 122 0 329 85 453 185 l68 56 41 -36 c49 -41 128 -73 217 -87 147 -23 438
42 607 136 40 22 41 22 63 4 52 -41 132 -12 287 105 56 43 105 77 109 77 13 0
-2 -43 -68 -192 -36 -83 -81 -167 -103 -193 -20 -25 -101 -92 -178 -147 -232
-166 -403 -305 -464 -378 -65 -77 -133 -186 -152 -244 -38 -117 51 -211 165
-173 170 58 467 347 590 574 87 160 191 282 300 354 22 14 94 61 160 104 176
114 366 249 398 283 35 36 33 70 -5 92 -21 11 -33 12 -55 4 -15 -6 -136 -81
-268 -168 -132 -86 -241 -153 -243 -148 -1 4 32 95 73 201 41 106 75 204 75
218 0 31 -44 72 -134 126 -82 49 -119 52 -188 18 -66 -31 -190 -150 -255 -243
-44 -63 -67 -86 -121 -118 -228 -134 -556 -188 -687 -111 -32 18 -64 65 -53
77 4 3 36 1 71 -5 97 -17 153 3 233 83 103 103 118 205 43 290 -38 44 -113 71
-172 62 -95 -14 -224 -122 -278 -231 -16 -33 -35 -89 -42 -125 -14 -65 -14
-65 -98 -133 -99 -80 -194 -129 -303 -157 -98 -25 -113 -25 -152 -1 -47 29
-67 81 -62 160 7 99 30 133 180 269 253 228 408 400 553 617 199 298 231 486
84 502 -61 7 -84 -6 -205 -120 -218 -206 -430 -497 -601 -824 -63 -119 -66
-123 -106 -133 -23 -6 -121 -34 -217 -62 -156 -45 -179 -49 -215 -40 -63 17
-158 63 -148 73 5 5 33 13 63 19 29 6 62 18 72 27 24 22 23 58 -3 84 -49 49
-237 3 -332 -81 -74 -64 -39 -130 90 -170 36 -11 72 -20 80 -20 8 0 13 -6 10
-12 -2 -7 -14 -12 -25 -11 -12 2 -56 -13 -98 -32 -42 -19 -104 -42 -138 -51
-67 -18 -290 -64 -292 -61 -1 1 -10 52 -20 112 -33 209 -44 157 134 675 348
1013 566 1597 750 2011 39 86 73 175 77 198 6 37 4 44 -23 71 -33 33 -54 36
-92 17z m-249 -559 c-57 -166 -683 -1913 -690 -1926 -5 -9 -35 36 -92 140 -92
167 -136 231 -271 386 -49 56 -88 106 -86 112 3 10 1158 1370 1163 1370 2 0
-9 -37 -24 -82z m-1998 -1103 c212 -28 395 -86 540 -170 42 -25 77 -48 77 -51
0 -11 -1023 -1215 -1040 -1224 -33 -18 -103 -10 -236 25 -324 85 -609 222
-816 393 -131 108 -185 213 -176 342 18 249 340 520 744 625 79 21 294 57 404
68 99 10 400 6 503 -8z m3376 -287 c-40 -79 -160 -256 -254 -373 -77 -95 -222
-241 -231 -232 -21 21 173 315 334 507 67 81 176 184 180 171 2 -5 -11 -38
-29 -73z m-2558 -90 c140 -156 199 -238 270 -379 52 -104 119 -302 119 -354 0
-42 -84 -311 -104 -332 -41 -44 -792 -86 -1141 -65 -94 6 -180 15 -191 19 -19
7 17 53 328 418 192 226 415 490 496 587 81 97 149 177 152 177 3 1 35 -32 71
-71z m2849 -693 c27 -32 -37 -115 -89 -115 -36 0 -81 19 -81 35 0 13 55 67 85
83 28 16 70 15 85 -3z m936 -32 c-20 -40 -122 -123 -149 -123 -16 0 57 82 102
116 56 41 66 42 47 7z m-2530 -312 c-33 -34 -102 -66 -166 -76 l-45 -7 40 28
c44 31 186 96 194 88 2 -2 -8 -17 -23 -33z m-828 -346 c-8 -205 -76 -463 -183
-691 -44 -94 -121 -220 -149 -243 -18 -15 20 134 136 529 44 151 93 320 108
376 26 96 49 152 74 183 17 21 19 -5 14 -154z m2956 -347 c-74 -104 -252 -284
-323 -327 -61 -37 -61 -33 -8 59 42 72 224 255 311 313 39 26 72 44 74 42 3
-2 -22 -42 -54 -87z"/>
<path d="M11961 8265 c-464 -48 -930 -168 -1426 -367 -414 -167 -726 -346
-996 -572 -210 -175 -284 -272 -309 -406 -35 -186 107 -322 395 -380 189 -38
311 -46 1175 -75 1107 -38 1403 -70 1985 -216 129 -33 193 -57 213 -81 10 -13
6 -19 -25 -41 -99 -69 -378 -178 -628 -246 -194 -53 -614 -142 -774 -164 -9
-1 -18 12 -23 33 -12 45 -41 70 -84 70 -67 0 -250 -32 -285 -51 -74 -37 -99
-101 -59 -151 52 -67 187 -80 455 -44 720 98 1343 292 1542 479 88 83 59 192
-70 266 -133 76 -670 190 -1132 240 -332 36 -623 51 -1355 71 -552 15 -753 31
-925 75 -234 59 -286 125 -205 260 140 233 622 540 1240 788 703 282 1550 402
2091 297 95 -18 273 -79 359 -123 25 -13 53 -37 64 -56 l19 -33 -46 -42 c-25
-23 -49 -54 -53 -69 -9 -37 9 -75 42 -88 57 -21 187 49 225 121 43 80 11 211
-69 281 -20 18 -88 57 -151 86 -247 117 -390 144 -781 149 -184 2 -319 -2
-409 -11z"/>
<path d="M14206 8048 c-31 -28 -222 -357 -287 -495 -26 -55 -51 -103 -56 -106
-4 -3 -93 -12 -198 -22 -377 -33 -622 -106 -758 -225 -146 -129 -89 -241 185
-361 116 -50 247 -123 314 -174 18 -13 46 -53 63 -86 45 -89 43 -142 -10 -261
-22 -51 -87 -201 -144 -333 -214 -499 -248 -575 -335 -750 -99 -201 -165 -349
-175 -395 -9 -43 16 -80 54 -80 52 0 87 60 240 405 34 77 100 212 146 300 288
543 362 717 384 895 7 63 36 140 181 490 95 228 181 425 193 437 20 23 22 23
226 17 236 -7 284 1 289 47 2 14 -4 31 -12 38 -15 13 -131 26 -328 36 l-116 7
8 26 c4 15 56 135 115 267 115 257 130 309 100 332 -27 19 -50 16 -79 -9z
m-414 -743 c3 -4 -14 -66 -38 -140 -34 -104 -43 -143 -38 -173 5 -32 -5 -63
-62 -201 l-68 -162 -20 28 c-40 56 -119 133 -169 165 -28 18 -137 76 -242 128
-218 109 -226 117 -153 171 53 39 188 103 248 117 36 9 292 47 435 65 51 7
101 7 107 2z"/>
<path d="M16610 7693 c-62 -23 -220 -189 -341 -359 -55 -76 -165 -263 -263
-447 -57 -105 -79 -123 -133 -108 -59 17 -127 13 -190 -11 -84 -31 -127 -61
-223 -153 -82 -79 -91 -84 -248 -154 -250 -110 -477 -181 -583 -181 -26 0 -46
7 -59 20 -22 22 -22 21 -24 137 -1 76 -3 84 -30 112 -23 24 -38 31 -69 31 -54
0 -100 -25 -252 -137 -175 -128 -257 -183 -274 -183 -17 0 -11 32 20 115 15
41 37 74 70 106 71 69 91 160 43 198 -61 48 -126 12 -197 -107 -57 -94 -104
-224 -113 -309 -12 -110 44 -178 147 -178 53 0 61 4 184 85 71 47 167 113 213
148 47 34 86 61 88 59 2 -2 9 -30 15 -63 14 -73 29 -103 73 -142 43 -38 125
-57 205 -47 131 16 346 82 517 160 l72 33 9 -35 c12 -50 52 -78 111 -78 38 0
62 9 117 42 72 42 349 245 360 263 15 24 22 5 28 -73 10 -125 30 -181 86 -237
64 -64 129 -81 216 -55 74 21 140 54 233 117 l74 49 -7 -29 c-9 -42 17 -97 57
-122 29 -19 45 -21 128 -17 147 6 369 85 561 199 l76 46 6 -60 c6 -67 24 -100
70 -128 38 -24 83 -25 160 -5 123 32 215 99 287 211 72 109 66 203 -16 294
-36 40 -37 40 -109 40 -95 0 -155 -19 -224 -72 -103 -80 -338 -228 -432 -273
-165 -77 -387 -141 -410 -118 -8 8 3 38 38 109 41 86 55 103 97 132 51 34 146
167 146 205 0 28 -45 67 -78 67 -39 0 -107 -54 -167 -136 -28 -36 -63 -72 -78
-81 -16 -8 -93 -62 -170 -120 -221 -165 -240 -176 -298 -177 -43 -1 -54 3 -74
26 -53 62 -36 268 35 408 30 59 38 69 201 267 284 344 442 563 455 630 12 61
-67 111 -136 86z m-860 -1090 c-51 -43 -215 -166 -250 -187 -31 -18 -32 -18
-22 1 22 40 104 122 159 159 50 33 132 67 142 58 2 -2 -11 -16 -29 -31z m1975
-33 c21 -67 -103 -197 -217 -228 l-38 -10 0 32 c0 60 77 156 125 156 11 0 40
16 65 35 53 41 57 41 65 15z"/>
<path d="M16874 6959 c-38 -11 -64 -60 -45 -83 16 -19 89 -36 159 -36 66 0 72
6 65 57 -9 60 -90 88 -179 62z"/>
</g>
</svg>
