<svg xmlns="http://www.w3.org/2000/svg" viewBox="0 0 1402 518" width="1402" height="518" preserveAspectRatio="xMidYMid meet" style="width: 100%; height: 100%; transform: translate3d(0px, 0px, 0px);"><defs><clipPath id="__lottie_element_106"><rect width="1402" height="518" x="0" y="0"></rect>



</clipPath><clipPath id="__lottie_element_108"><path d="M0,0 L1642,0 L1642,1011 L0,1011z"></path></clipPath><clipPath id="__lottie_element_112"><path d="M0,0 L1000,0 L1000,1000 L0,1000z"></path></clipPath>
</defs><g clip-path="url(#__lottie_element_106)"><g clip-path="url(#__lottie_element_108)" transform="matrix(0.5299999713897705,0,0,0.5299999713897705,546.8699951171875,1.08502197265625)" opacity="1" style="display: block;"><g transform="matrix(1,0,0,1,821,505.5)" opacity="1" style="display: block;"><g opacity="1" transform="matrix(1,0,0,1,0,0)">
    <path fill="rgb(255,255,255)" fill-opacity="1" d=" M-148.87399291992188,-130.16000366210938 C-212.54600524902344,-130.16000366210938 -265.4670104980469,-107.83300018310547 -307.6390075683594,-63.180999755859375 C-349.8110046386719,-18.527999877929688 -371.30999755859375,35.220001220703125 -371.30999755859375,98.89099884033203
    C-371.30999755859375,164.21600341796875 -348.9840087890625,219.6179962158203 -305.1579895019531,263.4440002441406 C-260.5060119628906,307.2699890136719 -205.10299682617188,328.7690124511719 -139.7779998779297,328.7690124511719 C-60.395999908447266,328.7690124511719 11.543999671936035,290.73199462890625 48.75400161743164,222.0989990234375
    C48.75400161743164,222.0989990234375 -22.358999252319336,174.96600341796875 -22.358999252319336,174.96600341796875 C-46.3390007019043,220.44500732421875 -86.02999877929688,243.59800720214844 -141.4320068359375,243.59800720214844 C-175.3350067138672,243.59800720214844 -205.10299682617188,232.8489990234375 -230.73699951171875,211.3489990234375
    C-256.3710021972656,189.0229949951172 -269.60198974609375,161.73500061035156 -270.4280090332031,128.66000366210938 C-270.4280090332031,128.66000366210938 64.46600341796875,128.66000366210938 64.46600341796875,128.66000366210938 C65.29199981689453,121.21700286865234 66.11900329589844,111.29499816894531 66.11900329589844,98.06400299072266
    C66.11900329589844,29.43199920654297 47.10100173950195,-25.143999099731445 9.062999725341797,-67.31500244140625 C-28.974000930786133,-109.48699951171875 -81.89600372314453,-130.16000366210938 -148.87399291992188,-130.16000366210938z M-265.4670104980469,54.23899841308594 C-256.3710021972656,-6.125 -209.23800659179688,-45.816001892089844
    -148.87399291992188,-45.816001892089844 C-86.02999877929688,-45.816001892089844 -37.24300003051758,-7.7789998054504395 -33.935001373291016,54.23899841308594 C-33.935001373291016,54.23899841308594 -265.4670104980469,54.23899841308594 -265.4670104980469,54.23899841308594z"></path></g>
</g><g transform="matrix(1,0,0,1,239.156005859375,382.3689880371094)" opacity="1" style="display: block;"><g opacity="1" transform="matrix(1,0,0,1,0,0)"><path fill="rgb(255,255,255)" fill-opacity="1" d=" M-62.41400146484375,-203.8300018310547 C-62.41400146484375,-203.8300018310547
-164.156005859375,-203.8300018310547 -164.156005859375,-203.8300018310547 C-164.156005859375,-203.8300018310547 -164.156005859375,-109.56400299072266 -164.156005859375,-109.56400299072266 C-164.156005859375,-109.56400299072266 -71.51000213623047,-109.56400299072266 -71.51000213623047,
-109.56400299072266 C-23.548999786376953,-109.56400299072266 10.35200023651123,-98.81400299072266 30.197999954223633,-77.31500244140625 C50.869998931884766,-55.816001892089844 60.79399871826172,-30.18199920654297 60.79399871826172,-0.414000004529953 C60.79399871826172,59.12300109863281
18.621999740600586,110.39099884033203 -71.51000213623047,110.39099884033203 C-71.51000213623047,110.39099884033203 -164.156005859375,110.39099884033203 -164.156005859375,110.39099884033203 C-164.156005859375,110.39099884033203 -164.156005859375,203.8300018310547 -164.156005859375,
203.8300018310547 C-164.156005859375,203.8300018310547 -74.81800079345703,203.8300018310547 -74.81800079345703,203.8300018310547 C0.4300000071525574,203.8300018310547 58.3129997253418,183.98500061035156 100.48400115966797,145.12100219726562 C142.656005859375,105.42900085449219
164.156005859375,55.816001892089844 164.156005859375,-2.8940000534057617 C164.156005859375,-58.29600143432617 145.13800048828125,-106.25599670410156 107.10099792480469,-145.1199951171875 C69.88999938964844,-183.98399353027344 12.833999633789062,-203.8300018310547 -62.41400146484375,
-203.8300018310547z"></path></g>
</g><g transform="matrix(1,0,0,1,821,505.5)" opacity="1" style="display: block;"><g opacity="1" transform="matrix(1,0,0,1,0,0)">
    <path fill="rgb(255,255,255)" fill-opacity="1" d=" M730.5800170898438,-40.02799987792969 C703.2899780273438,-100.39099884033203 647.8900146484375,-130.16000366210938 565.2000122070312,
    -130.16000366210938 C475.07000732421875,-130.16000366210938 412.2200012207031,-92.9489974975586 377.489990234375,-17.70199966430664 C377.489990234375,-17.70199966430664 452.739990234375,
    25.297000885009766 452.739990234375,25.297000885009766 C475.07000732421875,-21.836000442504883 512.280029296875,-44.98899841308594 562.719970703125,-44.98899841308594 C618.1199951171875,
    -44.98899841308594 649.5399780273438,-15.220999717712402 649.5399780273438,21.163000106811523 C649.5399780273438,45.970001220703125 635.47998046875,58.37300109863281 608.2000122070312,
    58.37300109863281 C608.2000122070312,58.37300109863281 553.6199951171875,58.37300109863281 553.6199951171875,58.37300109863281 C475.8900146484375,58.37300109863281 370.04998779296875,
    90.62200164794922 370.04998779296875,193.1580047607422 C370.04998779296875,193.1580047607422 370.04998779296875,198.11900329589844 370.04998779296875,198.11900329589844 C370.04998779296875,
    236.156005859375 384.1099853515625,267.5780029296875 412.2200012207031,291.5589904785156 C440.3399963378906,315.53900146484375 475.8900146484375,327.9419860839844 518.8900146484375,
    327.9419860839844 C578.4299926757812,327.9419860839844 621.4299926757812,305.6159973144531 648.7100219726562,260.135986328125 C648.7100219726562,260.135986328125 648.7100219726562,
    320.5 648.7100219726562,320.5 C648.7100219726562,320.5 745.4600219726562,320.5 745.4600219726562,320.5 C745.4600219726562,320.5 745.4600219726562,39.35499954223633 745.4600219726562,
    39.35499954223633 C745.4600219726562,8.758999824523926 740.5,-17.70199966430664 730.5800170898438,-40.02799987792969z M648.7100219726562,141.88999938964844 C648.7100219726562,
    208.04200744628906 605.719970703125,249.38699340820312 538.739990234375,249.38699340820312 C496.57000732421875,249.38699340820312 468.45001220703125,225.40699768066406
    468.45001220703125,189.0229949951172 C468.45001220703125,170.00399780273438 477.54998779296875,155.1199951171875 494.9100036621094,144.37100219726562 C513.0999755859375,
    133.62100219726562 532.9500122070312,127.83300018310547 553.6199951171875,127.83300018310547 C553.6199951171875,127.83300018310547 648.7100219726562,127.83300018310547
    648.7100219726562,127.83300018310547 C648.7100219726562,127.83300018310547 648.7100219726562,141.88999938964844 648.7100219726562,141.88999938964844z"></path></g>
</g><g transform="matrix(1,0,0,1,1037.39697265625,605.218017578125)" opacity="1" style="display: block;"><g opacity="1" transform="matrix(1,0,0,1,0,0)">
    <path fill="rgb(255,255,255)" fill-opacity="1" d=" M-49.20199966430664,220.78199768066406 C-49.20199966430664,220.78199768066406 49.20199966430664,220.78199768066406
    49.20199966430664,220.78199768066406 C49.20199966430664,220.78199768066406 49.20199966430664,-220.78199768066406 49.20199966430664,-220.78199768066406
    C49.20199966430664,-220.78199768066406 -49.20199966430664,-220.78199768066406 -49.20199966430664,-220.78199768066406 C-49.20199966430664,-220.78199768066406
    -49.20199966430664,220.78199768066406 -49.20199966430664,220.78199768066406z"></path></g></g><g transform="matrix(1,0,0,1,1036.9830322265625,241.072998046875)"
                                                                                                    opacity="1" style="display: block;"><g opacity="1" transform="matrix(1,0,0,1,0,0)"><path fill="rgb(255,255,255)" fill-opacity="1" d=" M-45.48099899291992,-45.16899871826172 C-71.11499786376953,-19.53499984741211 -71.11499786376953,20.155000686645508 -45.48099899291992,45.78900146484375 C-19.847000122070312,71.4229965209961 19.8439998626709,71.4229965209961 45.47700119018555,45.78900146484375 C71.11699676513672,20.155000686645508 71.11699676513672,-19.53499984741211 45.47700119018555,-45.16899871826172 C19.8439998626709,-71.62999725341797 -19.847000122070312,-71.62999725341797 -45.48099899291992,-45.16899871826172z"></path></g></g></g><g clip-path="url(#__lottie_element_112)" transform="matrix(0.7599999904632568,0,0,0.7599999904632568,-165,-117)" opacity="1" style="display: block;"><g style="display: none;" transform="matrix(1,0,0,1,660.5830078125,740.875)" opacity="0.15248193052000303"><g opacity="1" transform="matrix(1,0,0,1,0,0)"><path fill="rgb(255,255,255)" fill-opacity="1" d=" M-80.29199981689453,-80.29199981689453 C-80.29199981689453,-80.29199981689453 80.29199981689453,-80.29199981689453 80.29199981689453,-80.29199981689453 C80.29199981689453,-80.29199981689453 80.29199981689453,80.29199981689453 80.29199981689453,80.29199981689453 C80.29199981689453,80.29199981689453 -80.29199981689453,80.29199981689453 -80.29199981689453,80.29199981689453 C-80.29199981689453,80.29199981689453 -80.29199981689453,-80.29199981689453 -80.29199981689453,-80.29199981689453z"></path></g></g><g style="display: none;" transform="matrix(1,0,0,1,500,740.875)" opacity="0.17327203109803635"><g opacity="1" transform="matrix(1,0,0,1,0,0)"><path fill="rgb(255,255,255)" fill-opacity="1" d=" M-80.29199981689453,-80.29199981689453 C-80.29199981689453,-80.29199981689453 80.29199981689453,-80.29199981689453 80.29199981689453,-80.29199981689453 C80.29199981689453,-80.29199981689453 80.29199981689453,80.29199981689453 80.29199981689453,80.29199981689453 C80.29199981689453,80.29199981689453 -80.29199981689453,80.29199981689453 -80.29199981689453,80.29199981689453 C-80.29199981689453,80.29199981689453 -80.29199981689453,-80.29199981689453 -80.29199981689453,-80.29199981689453z"></path></g></g><g style="display: none;" transform="matrix(1,0,0,1,339.4179992675781,740.875)" opacity="0.4218608226206271"><g opacity="1" transform="matrix(1,0,0,1,0,0)"><path fill="rgb(255,255,255)" fill-opacity="1" d=" M-80.29199981689453,-80.29199981689453 C-80.29199981689453,-80.29199981689453 80.29199981689453,-80.29199981689453 80.29199981689453,-80.29199981689453 C80.29199981689453,-80.29199981689453 80.29199981689453,80.29199981689453 80.29199981689453,80.29199981689453 C80.29199981689453,80.29199981689453 -80.29199981689453,80.29199981689453 -80.29199981689453,80.29199981689453 C-80.29199981689453,80.29199981689453 -80.29199981689453,-80.29199981689453 -80.29199981689453,-80.29199981689453z"></path></g></g><g style="display: none;" transform="matrix(1,0,0,1,660.5830078125,580.2919921875)" opacity="0.1609494943609427"><g opacity="1" transform="matrix(1,0,0,1,0,0)"><path fill="rgb(255,255,255)" fill-opacity="1" d=" M-80.29199981689453,-80.29199981689453 C-80.29199981689453,-80.29199981689453 80.29199981689453,-80.29199981689453 80.29199981689453,-80.29199981689453 C80.29199981689453,-80.29199981689453 80.29199981689453,80.29199981689453 80.29199981689453,80.29199981689453 C80.29199981689453,80.29199981689453 -80.29199981689453,80.29199981689453 -80.29199981689453,80.29199981689453 C-80.29199981689453,80.29199981689453 -80.29199981689453,-80.29199981689453 -80.29199981689453,-80.29199981689453z"></path></g></g><g style="display: none;" transform="matrix(1,0,0,1,500,580.2919921875)" opacity="0.1819255347242185"><g opacity="1" transform="matrix(1,0,0,1,0,0)"><path fill="rgb(255,255,255)" fill-opacity="1" d=" M-80.29100036621094,-80.29199981689453 C-80.29100036621094,-80.29199981689453 80.29100036621094,-80.29199981689453 80.29100036621094,-80.29199981689453 C80.29100036621094,-80.29199981689453 80.29100036621094,80.29199981689453 80.29100036621094,80.29199981689453 C80.29100036621094,80.29199981689453 -80.29100036621094,80.29199981689453 -80.29100036621094,80.29199981689453 C-80.29100036621094,80.29199981689453 -80.29100036621094,-80.29199981689453 -80.29100036621094,-80.29199981689453z"></path></g></g><g style="display: none;" transform="matrix(1,0,0,1,339.4169921875,580.2919921875)" opacity="0.25655554442744505"><g opacity="1" transform="matrix(1,0,0,1,0,0)"><path fill="rgb(255,255,255)" fill-opacity="1" d=" M-80.29199981689453,-80.29199981689453 C-80.29199981689453,-80.29199981689453 80.29199981689453,-80.29199981689453 80.29199981689453,-80.29199981689453 C80.29199981689453,-80.29199981689453 80.29199981689453,80.29199981689453 80.29199981689453,80.29199981689453 C80.29199981689453,80.29199981689453 -80.29199981689453,80.29199981689453 -80.29199981689453,80.29199981689453 C-80.29199981689453,80.29199981689453 -80.29199981689453,-80.29199981689453 -80.29199981689453,-80.29199981689453z"></path></g></g><g style="display: none;" transform="matrix(1,0,0,1,660.5830078125,419.7080078125)" opacity="0.08267307814914616"><g opacity="1" transform="matrix(1,0,0,1,0,0)"><path fill="rgb(255,255,255)" fill-opacity="1" d=" M-80.29199981689453,-80.29100036621094 C-80.29199981689453,-80.29100036621094 80.29199981689453,-80.29100036621094 80.29199981689453,-80.29100036621094 C80.29199981689453,-80.29100036621094 80.29199981689453,80.29199981689453 80.29199981689453,80.29199981689453 C80.29199981689453,80.29199981689453 -80.29199981689453,80.29199981689453 -80.29199981689453,80.29199981689453 C-80.29199981689453,80.29199981689453 -80.29199981689453,-80.29100036621094 -80.29199981689453,-80.29100036621094z"></path></g></g><g style="display: none;" transform="matrix(1,0,0,1,500,419.7080078125)" opacity="0.016483403188812532"><g opacity="1" transform="matrix(1,0,0,1,0,0)"><path fill="rgb(255,255,255)" fill-opacity="1" d=" M-80.29100036621094,-80.29100036621094 C-80.29100036621094,-80.29100036621094 80.29100036621094,-80.29100036621094 80.29100036621094,-80.29100036621094 C80.29100036621094,-80.29100036621094 80.29100036621094,80.29199981689453 80.29100036621094,80.29199981689453 C80.29100036621094,80.29199981689453 -80.29100036621094,80.29199981689453 -80.29100036621094,80.29199981689453 C-80.29100036621094,80.29199981689453 -80.29100036621094,-80.29100036621094 -80.29100036621094,-80.29100036621094z"></path></g></g><g transform="matrix(1,0,0,1,339.4169921875,419.7080078125)" opacity="0.03726908245033215" style="display: none;"><g opacity="1" transform="matrix(1,0,0,1,0,0)"><path fill="rgb(255,255,255)" fill-opacity="1" d=" M-80.29100036621094,-80.29100036621094 C-80.29100036621094,-80.29100036621094 80.29100036621094,-80.29100036621094 80.29100036621094,-80.29100036621094 C80.29100036621094,-80.29100036621094 80.29100036621094,80.29199981689453 80.29100036621094,80.29199981689453 C80.29100036621094,80.29199981689453 -80.29100036621094,80.29199981689453 -80.29100036621094,80.29199981689453 C-80.29100036621094,80.29199981689453 -80.29100036621094,-80.29100036621094 -80.29100036621094,-80.29100036621094z"></path></g></g><g transform="matrix(1,0,0,1,660.5830078125,259.1260070800781)" opacity="0.2094761397472287" style="display: none;"><g opacity="1" transform="matrix(1,0,0,1,0,0)"><path fill="rgb(255,255,255)" fill-opacity="1" d=" M-80.29199981689453,-80.29100036621094 C-80.29199981689453,-80.29100036621094 80.29199981689453,-80.29100036621094 80.29199981689453,-80.29100036621094 C80.29199981689453,-80.29100036621094 80.29199981689453,80.29199981689453 80.29199981689453,80.29199981689453 C80.29199981689453,80.29199981689453 -80.29199981689453,80.29199981689453 -80.29199981689453,80.29199981689453 C-80.29199981689453,80.29199981689453 -80.29199981689453,-80.29100036621094 -80.29199981689453,-80.29100036621094z"></path></g></g><g transform="matrix(1,0,0,1,500,259.1260070800781)" opacity="0.012871574974534923" style="display: none;"><g opacity="1" transform="matrix(1,0,0,1,0,0)"><path fill="rgb(255,255,255)" fill-opacity="1" d=" M-80.29100036621094,-80.29100036621094 C-80.29100036621094,-80.29100036621094 80.29100036621094,-80.29100036621094 80.29100036621094,-80.29100036621094 C80.29100036621094,-80.29100036621094 80.29100036621094,80.29199981689453 80.29100036621094,80.29199981689453 C80.29100036621094,80.29199981689453 -80.29100036621094,80.29199981689453 -80.29100036621094,80.29199981689453 C-80.29100036621094,80.29199981689453 -80.29100036621094,-80.29100036621094 -80.29100036621094,-80.29100036621094z"></path></g></g><g transform="matrix(1,0,0,1,339.4179992675781,259.1260070800781)" opacity="0.1952950262476483" style="display: none;"><g opacity="1" transform="matrix(1,0,0,1,0,0)"><path fill="rgb(255,255,255)" fill-opacity="1" d=" M-80.29199981689453,-80.29199981689453 C-80.29199981689453,-80.29199981689453 80.29199981689453,-80.29199981689453 80.29199981689453,-80.29199981689453 C80.29199981689453,-80.29199981689453 80.29199981689453,80.29199981689453 80.29199981689453,80.29199981689453 C80.29199981689453,80.29199981689453 -80.29199981689453,80.29199981689453 -80.29199981689453,80.29199981689453 C-80.29199981689453,80.29199981689453 -80.29199981689453,-80.29199981689453 -80.29199981689453,-80.29199981689453z"></path></g></g><g style="display: block;" transform="matrix(1,0,0,1,339.4159851074219,740.875)" opacity="1"><g opacity="1" transform="matrix(1,0,0,1,0,0)"><path fill="rgb(255,255,255)" fill-opacity="1" d=" M-80.29100036621094,-80.29199981689453 C-80.29100036621094,-80.29199981689453 80.29199981689453,-80.29199981689453 80.29199981689453,-80.29199981689453 C80.29199981689453,-80.29199981689453 80.29199981689453,80.29199981689453 80.29199981689453,80.29199981689453 C80.29199981689453,80.29199981689453 0,80.29199981689453 0,80.29199981689453 C-44.34400177001953,80.29199981689453 -80.29100036621094,44.34299850463867 -80.29100036621094,0 C-80.29100036621094,0 -80.29100036621094,-80.29199981689453 -80.29100036621094,-80.29199981689453z"></path></g></g><g transform="matrix(1,0,0,1,680.656005859375,600.364990234375)" opacity="0.5" style="display: block;"><g opacity="1" transform="matrix(1,0,0,1,0,0)"><path fill="rgb(255,255,255)" fill-opacity="1" d=" M-60.21900177001953,-60.21900177001953 C-60.21900177001953,-60.21900177001953 60.21900177001953,-60.21900177001953 60.21900177001953,-60.21900177001953 C60.21900177001953,-60.21900177001953 60.21900177001953,-20.072999954223633 60.21900177001953,-20.072999954223633 C60.21900177001953,24.270999908447266 24.270999908447266,60.21900177001953 -20.072999954223633,60.21900177001953 C-20.072999954223633,60.21900177001953 -60.21900177001953,60.21900177001953 -60.21900177001953,60.21900177001953 C-60.21900177001953,60.21900177001953 -60.21900177001953,-60.21900177001953 -60.21900177001953,-60.21900177001953z"></path></g></g><g style="display: block;" transform="matrix(1,0,0,1,499.9989929199219,580.2919921875)" opacity="1"><g opacity="1" transform="matrix(1,0,0,1,0,0)"><path fill="rgb(255,255,255)" fill-opacity="1" d=" M-80.29199981689453,-80.29199981689453 C-80.29199981689453,-80.29199981689453 80.29199981689453,-80.29199981689453 80.29199981689453,-80.29199981689453 C80.29199981689453,-80.29199981689453 80.29199981689453,80.29199981689453 80.29199981689453,80.29199981689453 C80.29199981689453,80.29199981689453 -80.29199981689453,80.29199981689453 -80.29199981689453,80.29199981689453 C-80.29199981689453,80.29199981689453 -80.29199981689453,-80.29199981689453 -80.29199981689453,-80.29199981689453z"></path></g></g><g style="display: block;" transform="matrix(1,0,0,1,660.5819702148438,419.7080078125)" opacity="1"><g opacity="1" transform="matrix(1,0,0,1,0,0)"><path fill="rgb(255,255,255)" fill-opacity="1" d=" M-80.29100036621094,-80.29199981689453 C-80.29100036621094,-80.29199981689453 80.29100036621094,-80.29199981689453 80.29100036621094,-80.29199981689453 C80.29100036621094,-80.29199981689453 80.29100036621094,80.29100036621094 80.29100036621094,80.29100036621094 C80.29100036621094,80.29100036621094 -80.29100036621094,80.29100036621094 -80.29100036621094,80.29100036621094 C-80.29100036621094,80.29100036621094 -80.29100036621094,-80.29199981689453 -80.29100036621094,-80.29199981689453z"></path>
</g></g><g style="display: block;" transform="matrix(1,0,0,1,339.4159851074219,419.7080078125)" opacity="1"><g opacity="1" transform="matrix(1,0,0,1,0,0)"><path fill="rgb(255,255,255)" fill-opacity="1" d=" M-80.29100036621094,-80.29199981689453 C-80.29100036621094,-80.29199981689453 80.29199981689453,-80.29199981689453 80.29199981689453,-80.29199981689453 C80.29199981689453,-80.29199981689453 80.29199981689453,80.29100036621094 80.29199981689453,80.29100036621094 C80.29199981689453,80.29100036621094 -80.29100036621094,80.29100036621094 -80.29100036621094,80.29100036621094 C-80.29100036621094,80.29100036621094 -80.29100036621094,-80.29199981689453 -80.29100036621094,-80.29199981689453z"></path></g></g><g style="display: block;" transform="matrix(1,0,0,1,499.9989929199219,259.125)" opacity="1"><g opacity="1" transform="matrix(1,0,0,1,0,0)"><path fill="rgb(255,255,255)" fill-opacity="1" d=" M-80.29199981689453,-80.29199981689453 C-80.29199981689453,-80.29199981689453 80.29199981689453,-80.29199981689453 80.29199981689453,-80.29199981689453 C80.29199981689453,-80.29199981689453 80.29199981689453,80.29199981689453 80.29199981689453,80.29199981689453 C80.29199981689453,80.29199981689453 -80.29199981689453,80.29199981689453 -80.29199981689453,80.29199981689453 C-80.29199981689453,80.29199981689453 -80.29199981689453,-80.29199981689453 -80.29199981689453,-80.29199981689453z"></path></g></g><g style="display: block;" transform="matrix(1,0,0,1,339.4159851074219,259.1260070800781)" opacity="1"><g opacity="1" transform="matrix(1,0,0,1,0,0)"><path fill="rgb(255,255,255)" fill-opacity="1" d=" M-80.29100036621094,26.242000579833984 C-80.29100036621094,-32.59400177001953 -32.59400177001953,-80.29199981689453 26.242000579833984,-80.29199981689453 C26.242000579833984,-80.29199981689453 80.29199981689453,-80.29199981689453 80.29199981689453,-80.29199981689453 C80.29199981689453,-80.29199981689453 80.29199981689453,80.29199981689453 80.29199981689453,80.29199981689453 C80.29199981689453,80.29199981689453 -80.29100036621094,80.29199981689453 -80.29100036621094,80.29199981689453 C-80.29100036621094,80.29199981689453 -80.29100036621094,26.242000579833984 -80.29100036621094,26.242000579833984z"></path></g></g></g></g></svg>